<?xml version="1.0" encoding="iso-8859-1"?>
<!-- Generator: Adobe Illustrator 21.0.0, SVG Export Plug-In . SVG Version: 6.00 Build 0)  -->
<svg xmlns="http://www.w3.org/2000/svg" xmlns:xlink="http://www.w3.org/1999/xlink" version="1.1" id="Capa_1" x="0px" y="0px" viewBox="0 0 512.016 512.016" style="enable-background:new 0 0 512.016 512.016;" xml:space="preserve" width="512" height="512">
<g>
	<g>
		<path d="M320.179,0c-36.416,0-71.86,10.258-102.501,29.665c-4.666,2.955-6.053,9.133-3.098,13.799    c2.955,4.664,9.131,6.052,13.799,3.098C255.815,29.185,287.558,20,320.179,20c94.745,0,171.826,77.081,171.826,171.826    c0,13.292-1.518,26.236-4.388,38.668c-2.963-12.145-8.396-23.331-15.736-32.995c0.074-1.929,0.124-3.837,0.124-5.673    C472.006,108.109,403.896,40,320.179,40c-39.538,0-76.977,15.116-105.419,42.564c-28.368,27.375-44.811,64.107-46.298,103.427    c-0.109,2.894-0.172,7.698-0.072,11.62c-7.297,9.639-12.698,20.786-15.65,32.884c-2.87-12.432-4.388-25.376-4.388-38.668    c0-32.621,9.184-64.362,26.558-91.793c2.955-4.666,1.568-10.844-3.098-13.799s-10.844-1.568-13.799,3.097    c-19.404,30.637-29.661,66.079-29.661,102.495c0,37.682,10.929,72.856,29.773,102.533l-29.617,29.618    c-0.003,0.003-0.007,0.006-0.01,0.009s-0.006,0.007-0.009,0.01L12.297,440.189C4.374,448.113,0.01,458.683,0.01,469.951    c0,11.238,4.341,21.781,12.225,29.696c0.021,0.021,0.041,0.042,0.062,0.063c8.205,8.205,18.982,12.307,29.76,12.307    c10.778,0,21.556-4.103,29.761-12.307l116.201-116.202c0,0,0,0,0,0s0,0,0,0l29.626-29.627    c29.677,18.844,64.852,29.773,102.534,29.773c105.773,0,191.826-86.053,191.826-191.826S425.953,0,320.179,0z M370.178,131.827    c0-16.542,13.458-30,30-30s30,13.458,30,30c0,16.538-13.451,29.993-29.987,30c-0.004,0-0.008,0-0.013,0c-0.004,0-0.008,0-0.011,0    C383.63,161.821,370.178,148.365,370.178,131.827z M445.877,152.079c2.613,8.245,4.435,16.837,5.378,25.689    c-5.321-3.681-11.056-6.804-17.12-9.283C439.083,163.897,443.099,158.323,445.877,152.079z M320.191,201.825    c-0.004,0-0.008,0-0.013,0s-0.009,0-0.013,0c-16.536-0.007-29.987-13.462-29.987-30c0-16.542,13.458-30,30-30    c16.543,0,30.001,13.458,30.001,30C350.179,188.363,336.728,201.818,320.191,201.825z M240.191,161.827c-0.004,0-0.008,0-0.011,0    c-0.004,0-0.009,0-0.013,0c-16.536-0.007-29.987-13.462-29.987-30c0-16.542,13.458-30,30-30s30,13.458,30,30    C270.179,148.365,256.728,161.821,240.191,161.827z M206.223,168.484c-6.067,2.481-11.804,5.605-17.127,9.289    c0.934-8.913,2.737-17.547,5.33-25.816C197.205,158.251,201.242,163.867,206.223,168.484z M240.169,181.827    c0.003,0,0.007,0,0.01,0c0.004,0,0.008,0,0.011,0c11.794,0.002,23.332,2.968,33.586,8.59c2.782,6.919,7.062,13.076,12.445,18.066    c-16.702,6.83-30.91,18.536-40.841,33.344h-74.49C175.758,207.952,204.971,181.832,240.169,181.827z M235.326,261.827    c-2.935,8.277-4.69,17.106-5.065,26.286c-8.296-7.719-15.632-16.536-21.767-26.286H235.326z M280.175,301.825    c5.522,0,10-4.477,10-10s-4.478-10-10-10H250.89c4.867-33.875,34.079-59.995,69.278-60c0.003,0,0.007,0,0.01,0s0.007,0,0.01,0    c35.199,0.005,64.411,26.125,69.278,60h-29.292c-5.522,0-10,4.477-10,10s4.478,10,10,10h32.457    c-21.159,13.93-46.262,21.828-72.452,21.828c-26.188,0-51.29-7.897-72.45-21.828H280.175z M410.096,288.116    c-0.374-9.181-2.129-18.011-5.065-26.289h26.833C425.73,271.578,418.393,280.396,410.096,288.116z M394.976,241.827    c-9.931-14.808-24.139-26.514-40.84-33.344c5.383-4.99,9.664-11.148,12.446-18.067c10.257-5.621,21.794-8.587,33.586-8.589    c0.004,0,0.008,0,0.011,0c0.003,0,0.007,0,0.01,0c35.199,0.005,64.411,26.125,69.278,60H394.976z M393.451,82.293    c-24.398,3.298-43.272,24.247-43.272,49.535c0,0.009,0.001,0.017,0.001,0.026c-8.363-6.292-18.753-10.028-30.001-10.028    c-11.247,0-21.637,3.735-30,10.027c0-0.008,0-0.017,0-0.025c0-25.394-19.033-46.412-43.581-49.574    C267.605,68.177,292.912,60,320.179,60C347.274,60,372.483,68.22,393.451,82.293z M57.675,485.567    c-8.594,8.595-22.569,8.613-31.185,0.051c-0.018-0.018-0.035-0.036-0.053-0.053c-4.145-4.144-6.427-9.689-6.427-15.614    c0-5.926,2.282-11.473,6.429-15.619L135.569,345.2l31.236,31.236L57.675,485.567z M180.947,362.293l-31.236-31.236l20.171-20.172    c9.183,11.567,19.669,22.053,31.236,31.236L180.947,362.293z M320.179,363.652c-69.829,0-130.057-41.873-156.908-101.826h22.177    c12.113,23.287,30.034,43.056,52.162,57.425c24.583,15.963,53.135,24.401,82.569,24.401s57.986-8.438,82.569-24.4    c22.129-14.37,40.05-34.139,52.161-57.426h22.177C450.235,321.779,390.008,363.652,320.179,363.652z"/>
		<path d="M191.601,73.257c2.721,0,5.433-1.104,7.406-3.275c3.715-4.086,3.414-10.411-0.673-14.126    c-4.087-3.715-10.41-3.414-14.126,0.673l-0.005,0.005c-3.715,4.086-3.411,10.408,0.675,14.123    C186.795,72.398,189.201,73.257,191.601,73.257z"/>
		<path d="M330.178,291.825c0-5.523-4.478-10-10-10h-0.007c-5.522,0-9.996,4.477-9.996,10s4.48,10,10.003,10    S330.178,297.348,330.178,291.825z"/>
	</g>
</g>















</svg>
